<?xml version="1.0" encoding="UTF-8" standalone="yes"?>
<!-- Created with Inkscape (http://www.inkscape.org/) -->
<svg xmlns:svg="http://www.w3.org/2000/svg" xmlns="http://www.w3.org/2000/svg" version="1.0" width="600" height="320" id="svg2">
  <defs id="defs4"/>
  <g id="layer1">
    <path d="M 286.875,140 L 293.125,140 L 293.125,240 L 286.875,240 L 286.875,140 z " style="fill: black;" id="rect2860"/>
    <path d="M 421.875,140 L 428.125,140 L 428.125,240 L 421.875,240 L 421.875,140 z " style="fill: black;" id="rect2858"/>
    <path d="M 541.875,140 L 548.125,140 L 548.125,240 L 541.875,240 L 541.875,140 z " style="fill: black;" id="rect2856"/>
    <path d="M 86.875,140 L 93.125,140 L 93.125,240 L 86.875,240 L 86.875,140 z " style="fill: black;" id="rect2852"/>
    <path d="M 20,20 L 580,20 L 580,70 L 20,70 L 20,20 z " style="fill: rgb(95, 188, 211); fill-opacity: 1;" id="rect1872"/>
    <path d="M 20,90 L 580,90 L 580,140 L 20,140 L 20,90 z " style="fill: rgb(95, 188, 211); fill-opacity: 1;" id="rect1874"/>
    <path d="M 20,180 L 160,180 L 160,220 L 20,220 L 20,180 z " style="fill: rgb(95, 211, 188); fill-opacity: 1;" id="rect1876"/>
    <path d="M 20,240 L 160,240 L 160,280 L 20,280 L 20,240 z " style="fill: rgb(95, 211, 188); fill-opacity: 1;" id="rect1878"/>
    <path d="M 210,180 L 370,180 L 370,220 L 210,220 L 210,180 z " style="fill: rgb(255, 212, 42);" id="rect1882"/>
    <path d="M 390,180 L 460,180 L 460,220 L 390,220 L 390,180 z " style="fill: rgb(255, 212, 42);" id="rect1884"/>
    <path d="M 510,180 L 579.99998,180 L 579.99998,220 L 510,220 L 510,180 z " style="fill: rgb(204, 204, 204);" id="rect1886"/>
    <path d="M 510,240 L 580,240 L 580,280 L 510,280 L 510,240 z " style="fill: rgb(204, 204, 204);" id="rect1888"/>
    <path d="M 210,240 L 460,240 L 460,280 L 210,280 L 210,240 z " style="fill: rgb(255, 212, 42);" id="rect1891"/>
    <path d="M 185.1416,40.703125 L 182.46582,47.958984 L 187.82715,47.958984 L 185.1416,40.703125 M 184.02832,38.759766 L 186.26465,38.759766 L 191.82129,53.339844 L 189.77051,53.339844 L 188.44238,49.599609 L 181.87012,49.599609 L 180.54199,53.339844 L 178.46191,53.339844 L 184.02832,38.759766 M 195.60059,51.699219 L 195.60059,57.5 L 193.79395,57.5 L 193.79395,42.402344 L 195.60059,42.402344 L 195.60059,44.0625 C 195.97819,43.411468 196.45345,42.929698 197.02637,42.617188 C 197.60579,42.298188 198.29589,42.138683 199.09668,42.138672 C 200.4248,42.138683 201.50227,42.666026 202.3291,43.720703 C 203.16242,44.775399 203.57909,46.162117 203.5791,47.880859 C 203.57909,49.599613 203.16242,50.98633 202.3291,52.041016 C 201.50227,53.095703 200.4248,53.623047 199.09668,53.623047 C 198.29589,53.623047 197.60579,53.466797 197.02637,53.154297 C 196.45345,52.835287 195.97819,52.350261 195.60059,51.699219 M 201.71387,47.880859 C 201.71386,46.559252 201.44042,45.524096 200.89355,44.775391 C 200.35318,44.020192 199.60774,43.642588 198.65723,43.642578 C 197.7067,43.642588 196.958,44.020192 196.41113,44.775391 C 195.87076,45.524096 195.60058,46.559252 195.60059,47.880859 C 195.60058,49.202478 195.87076,50.240889 196.41113,50.996094 C 196.958,51.744793 197.7067,52.119142 198.65723,52.119141 C 199.60774,52.119142 200.35318,51.744793 200.89355,50.996094 C 201.44042,50.240889 201.71386,49.202478 201.71387,47.880859 M 208.2959,51.699219 L 208.2959,57.5 L 206.48926,57.5 L 206.48926,42.402344 L 208.2959,42.402344 L 208.2959,44.0625 C 208.6735,43.411468 209.14876,42.929698 209.72168,42.617188 C 210.3011,42.298188 210.9912,42.138683 211.79199,42.138672 C 213.12011,42.138683 214.19758,42.666026 215.02441,43.720703 C 215.85774,44.775399 216.2744,46.162117 216.27441,47.880859 C 216.2744,49.599613 215.85774,50.98633 215.02441,52.041016 C 214.19758,53.095703 213.12011,53.623047 211.79199,53.623047 C 210.9912,53.623047 210.3011,53.466797 209.72168,53.154297 C 209.14876,52.835287 208.6735,52.350261 208.2959,51.699219 M 214.40918,47.880859 C 214.40917,46.559252 214.13573,45.524096 213.58887,44.775391 C 213.04849,44.020192 212.30305,43.642588 211.35254,43.642578 C 210.40201,43.642588 209.65332,44.020192 209.10645,44.775391 C 208.56608,45.524096 208.29589,46.559252 208.2959,47.880859 C 208.29589,49.202478 208.56608,50.240889 209.10645,50.996094 C 209.65332,51.744793 210.40201,52.119142 211.35254,52.119141 C 212.30305,52.119142 213.04849,51.744793 213.58887,50.996094 C 214.13573,50.240889 214.40917,49.202478 214.40918,47.880859 M 219.25293,38.144531 L 221.0498,38.144531 L 221.0498,53.339844 L 219.25293,53.339844 L 219.25293,38.144531 M 224.7998,42.402344 L 226.59668,42.402344 L 226.59668,53.339844 L 224.7998,53.339844 L 224.7998,42.402344 M 224.7998,38.144531 L 226.59668,38.144531 L 226.59668,40.419922 L 224.7998,40.419922 L 224.7998,38.144531 M 238.21777,42.822266 L 238.21777,44.501953 C 237.70995,44.222014 237.19888,44.013681 236.68457,43.876953 C 236.17675,43.733734 235.66243,43.662119 235.1416,43.662109 C 233.97623,43.662119 233.07128,44.033212 232.42676,44.775391 C 231.78222,45.511076 231.45996,46.546231 231.45996,47.880859 C 231.45996,49.215499 231.78222,50.253909 232.42676,50.996094 C 233.07128,51.731772 233.97623,52.099611 235.1416,52.099609 C 235.66243,52.099611 236.17675,52.031251 236.68457,51.894531 C 237.19888,51.751304 237.70995,51.539715 238.21777,51.259766 L 238.21777,52.919922 C 237.71646,53.154297 237.19563,53.330078 236.65527,53.447266 C 236.12141,53.564453 235.55175,53.623047 234.94629,53.623047 C 233.29915,53.623047 231.99056,53.105469 231.02051,52.070312 C 230.05045,51.035159 229.56543,49.638676 229.56543,47.880859 C 229.56543,46.097012 230.05371,44.694019 231.03027,43.671875 C 232.01334,42.64975 233.35774,42.138683 235.06348,42.138672 C 235.61685,42.138683 236.15722,42.197277 236.68457,42.314453 C 237.21191,42.425141 237.72297,42.594412 238.21777,42.822266 M 246.33301,47.841797 C 244.88118,47.841802 243.87532,48.007818 243.31543,48.339844 C 242.75553,48.67188 242.47558,49.238285 242.47559,50.039062 C 242.47558,50.677086 242.68392,51.184898 243.10059,51.5625 C 243.52376,51.933595 244.09668,52.119142 244.81934,52.119141 C 245.81542,52.119142 246.61295,51.76758 247.21191,51.064453 C 247.81737,50.354821 248.12011,49.414066 248.12012,48.242188 L 248.12012,47.841797 L 246.33301,47.841797 M 249.91699,47.099609 L 249.91699,53.339844 L 248.12012,53.339844 L 248.12012,51.679688 C 247.70995,52.343751 247.19889,52.835287 246.58691,53.154297 C 245.97493,53.466797 245.22623,53.623047 244.34082,53.623047 C 243.22102,53.623047 242.3291,53.310547 241.66504,52.685547 C 241.00749,52.054038 240.67871,51.21094 240.67871,50.15625 C 240.67871,48.925786 241.08887,47.998052 241.90918,47.373047 C 242.736,46.748053 243.96647,46.435554 245.60059,46.435547 L 248.12012,46.435547 L 248.12012,46.259766 C 248.12011,45.432951 247.84667,44.79493 247.2998,44.345703 C 246.75943,43.889983 245.99771,43.662119 245.01465,43.662109 C 244.38964,43.662119 243.78092,43.736989 243.18848,43.886719 C 242.59603,44.036468 242.02636,44.261077 241.47949,44.560547 L 241.47949,42.900391 C 242.13704,42.646495 242.77506,42.457693 243.39355,42.333984 C 244.01204,42.203787 244.61425,42.138683 245.2002,42.138672 C 246.78222,42.138683 247.96386,42.548839 248.74512,43.369141 C 249.52636,44.189462 249.91698,45.432951 249.91699,47.099609 M 255.40527,39.296875 L 255.40527,42.402344 L 259.10645,42.402344 L 259.10645,43.798828 L 255.40527,43.798828 L 255.40527,49.736328 C 255.40527,50.628258 255.52571,51.201174 255.7666,51.455078 C 256.01399,51.708986 256.51204,51.835939 257.26074,51.835938 L 259.10645,51.835938 L 259.10645,53.339844 L 257.26074,53.339844 C 255.87402,53.339844 254.91699,53.082683 254.38965,52.568359 C 253.8623,52.047527 253.59863,51.103518 253.59863,49.736328 L 253.59863,43.798828 L 252.28027,43.798828 L 252.28027,42.402344 L 253.59863,42.402344 L 253.59863,39.296875 L 255.40527,39.296875 M 261.47949,42.402344 L 263.27637,42.402344 L 263.27637,53.339844 L 261.47949,53.339844 L 261.47949,42.402344 M 261.47949,38.144531 L 263.27637,38.144531 L 263.27637,40.419922 L 261.47949,40.419922 L 261.47949,38.144531 M 271.26465,43.662109 C 270.3011,43.662119 269.53938,44.039723 268.97949,44.794922 C 268.41959,45.543628 268.13965,46.572272 268.13965,47.880859 C 268.13965,49.189457 268.41634,50.221357 268.96973,50.976562 C 269.52962,51.725262 270.29459,52.099611 271.26465,52.099609 C 272.22167,52.099611 272.98014,51.722007 273.54004,50.966797 C 274.09993,50.211592 274.37987,49.182947 274.37988,47.880859 C 274.37987,46.585293 274.09993,45.559904 273.54004,44.804688 C 272.98014,44.042978 272.22167,43.662119 271.26465,43.662109 M 271.26465,42.138672 C 272.82714,42.138683 274.05435,42.646495 274.94629,43.662109 C 275.83821,44.677743 276.28417,46.083992 276.28418,47.880859 C 276.28417,49.671228 275.83821,51.077476 274.94629,52.099609 C 274.05435,53.115235 272.82714,53.623047 271.26465,53.623047 C 269.69563,53.623047 268.46517,53.115235 267.57324,52.099609 C 266.68782,51.077476 266.24512,49.671228 266.24512,47.880859 C 266.24512,46.083992 266.68782,44.677743 267.57324,43.662109 C 268.46517,42.646495 269.69563,42.138683 271.26465,42.138672 M 288.34473,46.738281 L 288.34473,53.339844 L 286.54785,53.339844 L 286.54785,46.796875 C 286.54784,45.761726 286.34602,44.986988 285.94238,44.472656 C 285.53873,43.958343 284.93326,43.701182 284.12598,43.701172 C 283.15592,43.701182 282.39095,44.010426 281.83105,44.628906 C 281.27115,45.247404 280.99121,46.090502 280.99121,47.158203 L 280.99121,53.339844 L 279.18457,53.339844 L 279.18457,42.402344 L 280.99121,42.402344 L 280.99121,44.101562 C 281.42089,43.44402 281.92545,42.952484 282.50488,42.626953 C 283.09081,42.301443 283.76464,42.138683 284.52637,42.138672 C 285.78287,42.138683 286.73339,42.529308 287.37793,43.310547 C 288.02245,44.085296 288.34472,45.227873 288.34473,46.738281 M 302.63184,38.164062 C 301.75943,39.661472 301.11165,41.14259 300.68848,42.607422 C 300.2653,44.072275 300.05371,45.556648 300.05371,47.060547 C 300.05371,48.564458 300.2653,50.055342 300.68848,51.533203 C 301.11816,53.004558 301.76595,54.485676 302.63184,55.976562 L 301.06934,55.976562 C 300.09277,54.446613 299.36035,52.942709 298.87207,51.464844 C 298.3903,49.986983 298.14941,48.518885 298.14941,47.060547 C 298.14941,45.608732 298.3903,44.147145 298.87207,42.675781 C 299.35384,41.204439 300.08626,39.700534 301.06934,38.164062 L 302.63184,38.164062 M 306.20605,38.759766 L 309.14551,38.759766 L 312.86621,48.681641 L 316.60645,38.759766 L 319.5459,38.759766 L 319.5459,53.339844 L 317.62207,53.339844 L 317.62207,40.537109 L 313.8623,50.537109 L 311.87988,50.537109 L 308.12012,40.537109 L 308.12012,53.339844 L 306.20605,53.339844 L 306.20605,38.759766 M 323.20801,49.023438 L 323.20801,42.402344 L 325.00488,42.402344 L 325.00488,48.955078 C 325.00488,49.990238 325.2067,50.768232 325.61035,51.289062 C 326.01399,51.803387 326.61946,52.060548 327.42676,52.060547 C 328.3968,52.060548 329.16178,51.751304 329.72168,51.132812 C 330.28808,50.514326 330.57128,49.671228 330.57129,48.603516 L 330.57129,42.402344 L 332.36816,42.402344 L 332.36816,53.339844 L 330.57129,53.339844 L 330.57129,51.660156 C 330.13508,52.32422 329.62727,52.819011 329.04785,53.144531 C 328.47493,53.463542 327.80761,53.623047 327.0459,53.623047 C 325.78938,53.623047 324.83561,53.232422 324.18457,52.451172 C 323.53353,51.669924 323.20801,50.527347 323.20801,49.023438 M 336.08887,38.144531 L 337.88574,38.144531 L 337.88574,53.339844 L 336.08887,53.339844 L 336.08887,38.144531 M 343.41309,39.296875 L 343.41309,42.402344 L 347.11426,42.402344 L 347.11426,43.798828 L 343.41309,43.798828 L 343.41309,49.736328 C 343.41308,50.628258 343.53352,51.201174 343.77441,51.455078 C 344.02181,51.708986 344.51985,51.835939 345.26855,51.835938 L 347.11426,51.835938 L 347.11426,53.339844 L 345.26855,53.339844 C 343.88183,53.339844 342.9248,53.082683 342.39746,52.568359 C 341.87012,52.047527 341.60644,51.103518 341.60645,49.736328 L 341.60645,43.798828 L 340.28809,43.798828 L 340.28809,42.402344 L 341.60645,42.402344 L 341.60645,39.296875 L 343.41309,39.296875 M 349.4873,42.402344 L 351.28418,42.402344 L 351.28418,53.339844 L 349.4873,53.339844 L 349.4873,42.402344 M 349.4873,38.144531 L 351.28418,38.144531 L 351.28418,40.419922 L 349.4873,40.419922 L 349.4873,38.144531 M 363.5498,44.501953 C 363.99901,43.694671 364.53612,43.098969 365.16113,42.714844 C 365.78612,42.33074 366.5218,42.138683 367.36816,42.138672 C 368.50747,42.138683 369.38638,42.539073 370.00488,43.339844 C 370.62335,44.134124 370.9326,45.266935 370.93262,46.738281 L 370.93262,53.339844 L 369.12598,53.339844 L 369.12598,46.796875 C 369.12596,45.748706 368.94041,44.970711 368.56934,44.462891 C 368.19823,43.955088 367.63182,43.701182 366.87012,43.701172 C 365.93911,43.701182 365.20344,44.010426 364.66309,44.628906 C 364.12271,45.247404 363.85253,46.090502 363.85254,47.158203 L 363.85254,53.339844 L 362.0459,53.339844 L 362.0459,46.796875 C 362.04589,45.742195 361.86034,44.964201 361.48926,44.462891 C 361.11816,43.955088 360.54524,43.701182 359.77051,43.701172 C 358.85253,43.701182 358.12337,44.013681 357.58301,44.638672 C 357.04264,45.25717 356.77246,46.097012 356.77246,47.158203 L 356.77246,53.339844 L 354.96582,53.339844 L 354.96582,42.402344 L 356.77246,42.402344 L 356.77246,44.101562 C 357.18261,43.430999 357.67415,42.936208 358.24707,42.617188 C 358.81998,42.298188 359.50032,42.138683 360.28809,42.138672 C 361.08235,42.138683 361.75618,42.340506 362.30957,42.744141 C 362.86946,43.147797 363.28287,43.733734 363.5498,44.501953 M 383.88184,47.421875 L 383.88184,48.300781 L 375.62012,48.300781 C 375.69824,49.537764 376.06933,50.481774 376.7334,51.132812 C 377.40397,51.777345 378.33496,52.099611 379.52637,52.099609 C 380.21646,52.099611 380.88378,52.014975 381.52832,51.845703 C 382.17935,51.676434 382.82388,51.422528 383.46191,51.083984 L 383.46191,52.783203 C 382.81737,53.056641 382.15657,53.264974 381.47949,53.408203 C 380.8024,53.551432 380.11555,53.623047 379.41895,53.623047 C 377.67415,53.623047 376.29069,53.115235 375.26855,52.099609 C 374.25293,51.083987 373.74512,49.71029 373.74512,47.978516 C 373.74512,46.188158 374.22689,44.768889 375.19043,43.720703 C 376.16048,42.666026 377.46582,42.138683 379.10645,42.138672 C 380.57779,42.138683 381.7399,42.613943 382.59277,43.564453 C 383.45214,44.508472 383.88182,45.794278 383.88184,47.421875 M 382.08496,46.894531 C 382.07193,45.911466 381.79524,45.126961 381.25488,44.541016 C 380.72102,43.955088 380.01139,43.662119 379.12598,43.662109 C 378.12337,43.662119 377.31933,43.945322 376.71387,44.511719 C 376.11491,45.078133 375.76985,45.875659 375.67871,46.904297 L 382.08496,46.894531 M 394.02832,44.0625 L 394.02832,38.144531 L 395.8252,38.144531 L 395.8252,53.339844 L 394.02832,53.339844 L 394.02832,51.699219 C 393.65071,52.350261 393.17219,52.835287 392.59277,53.154297 C 392.01985,53.466797 391.32975,53.623047 390.52246,53.623047 C 389.20084,53.623047 388.12337,53.095703 387.29004,52.041016 C 386.46321,50.98633 386.0498,49.599613 386.0498,47.880859 C 386.0498,46.162117 386.46321,44.775399 387.29004,43.720703 C 388.12337,42.666026 389.20084,42.138683 390.52246,42.138672 C 391.32975,42.138683 392.01985,42.298188 392.59277,42.617188 C 393.17219,42.929698 393.65071,43.411468 394.02832,44.0625 M 387.90527,47.880859 C 387.90527,49.202478 388.17545,50.240889 388.71582,50.996094 C 389.26269,51.744793 390.01139,52.119142 390.96191,52.119141 C 391.91243,52.119142 392.66113,51.744793 393.20801,50.996094 C 393.75487,50.240889 394.02831,49.202478 394.02832,47.880859 C 394.02831,46.559252 393.75487,45.524096 393.20801,44.775391 C 392.66113,44.020192 391.91243,43.642588 390.96191,43.642578 C 390.01139,43.642588 389.26269,44.020192 388.71582,44.775391 C 388.17545,45.524096 387.90527,46.559252 387.90527,47.880859 M 399.52637,42.402344 L 401.32324,42.402344 L 401.32324,53.339844 L 399.52637,53.339844 L 399.52637,42.402344 M 399.52637,38.144531 L 401.32324,38.144531 L 401.32324,40.419922 L 399.52637,40.419922 L 399.52637,38.144531 M 410.04395,47.841797 C 408.59212,47.841802 407.58626,48.007818 407.02637,48.339844 C 406.46647,48.67188 406.18652,49.238285 406.18652,50.039062 C 406.18652,50.677086 406.39485,51.184898 406.81152,51.5625 C 407.2347,51.933595 407.80761,52.119142 408.53027,52.119141 C 409.52636,52.119142 410.32389,51.76758 410.92285,51.064453 C 411.52831,50.354821 411.83105,49.414066 411.83105,48.242188 L 411.83105,47.841797 L 410.04395,47.841797 M 413.62793,47.099609 L 413.62793,53.339844 L 411.83105,53.339844 L 411.83105,51.679688 C 411.42089,52.343751 410.90982,52.835287 410.29785,53.154297 C 409.68587,53.466797 408.93717,53.623047 408.05176,53.623047 C 406.93196,53.623047 406.04004,53.310547 405.37598,52.685547 C 404.71842,52.054038 404.38965,51.21094 404.38965,50.15625 C 404.38965,48.925786 404.7998,47.998052 405.62012,47.373047 C 406.44694,46.748053 407.6774,46.435554 409.31152,46.435547 L 411.83105,46.435547 L 411.83105,46.259766 C 411.83105,45.432951 411.55761,44.79493 411.01074,44.345703 C 410.47037,43.889983 409.70865,43.662119 408.72559,43.662109 C 408.10058,43.662119 407.49186,43.736989 406.89941,43.886719 C 406.30696,44.036468 405.7373,44.261077 405.19043,44.560547 L 405.19043,42.900391 C 405.84798,42.646495 406.486,42.457693 407.10449,42.333984 C 407.72298,42.203787 408.32519,42.138683 408.91113,42.138672 C 410.49316,42.138683 411.6748,42.548839 412.45605,43.369141 C 413.23729,44.189462 413.62792,45.432951 413.62793,47.099609 M 417.05566,38.164062 L 418.61816,38.164062 C 419.59472,39.700534 420.32389,41.204439 420.80566,42.675781 C 421.29394,44.147145 421.53808,45.608732 421.53809,47.060547 C 421.53808,48.518885 421.29394,49.986983 420.80566,51.464844 C 420.32389,52.942709 419.59472,54.446613 418.61816,55.976562 L 417.05566,55.976562 C 417.92155,54.485676 418.56608,53.004558 418.98926,51.533203 C 419.41894,50.055342 419.63378,48.564458 419.63379,47.060547 C 419.63378,45.556648 419.41894,44.072275 418.98926,42.607422 C 418.56608,41.14259 417.92155,39.661472 417.05566,38.164062" style="font-size: 20px; font-style: normal; font-variant: normal; font-weight: normal; font-stretch: normal; text-align: center; line-height: 125%; text-anchor: middle; fill: black; fill-opacity: 1; stroke: none; stroke-width: 1px; stroke-linecap: butt; stroke-linejoin: miter; stroke-opacity: 1; font-family: Bitstream Vera Sans;" id="text1893"/>
    <path d="M 252.56836,109.23828 L 252.56836,111.16211 C 251.81965,110.80405 251.11327,110.53712 250.44922,110.36133 C 249.78515,110.18556 249.14387,110.09767 248.52539,110.09766 C 247.45117,110.09767 246.62109,110.306 246.03516,110.72266 C 245.45573,111.13934 245.16601,111.73178 245.16602,112.5 C 245.16601,113.14454 245.35807,113.63282 245.74219,113.96484 C 246.13281,114.29037 246.86848,114.55405 247.94922,114.75586 L 249.14062,115 C 250.61197,115.27996 251.69595,115.77475 252.39258,116.48438 C 253.09569,117.18751 253.44725,118.13152 253.44727,119.31641 C 253.44725,120.72917 252.97199,121.80013 252.02148,122.5293 C 251.07746,123.25846 249.69075,123.62305 247.86133,123.62305 C 247.17122,123.62305 246.43554,123.54492 245.6543,123.38867 C 244.87955,123.23242 244.07552,123.0013 243.24219,122.69531 L 243.24219,120.66406 C 244.04297,121.11328 244.82747,121.45182 245.5957,121.67969 C 246.36393,121.90755 247.11914,122.02149 247.86133,122.02148 C 248.98762,122.02149 249.85676,121.80013 250.46875,121.35742 C 251.08072,120.91472 251.38671,120.28321 251.38672,119.46289 C 251.38671,118.74675 251.16536,118.18685 250.72266,117.7832 C 250.28645,117.37956 249.56705,117.07683 248.56445,116.875 L 247.36328,116.64062 C 245.89192,116.34766 244.82747,115.88868 244.16992,115.26367 C 243.51237,114.63868 243.18359,113.76954 243.18359,112.65625 C 243.18359,111.3672 243.63607,110.35158 244.54102,109.60938 C 245.45247,108.8672 246.70572,108.49611 248.30078,108.49609 C 248.98437,108.49611 249.68098,108.55796 250.39062,108.68164 C 251.10025,108.80535 251.82616,108.9909 252.56836,109.23828 M 258.49609,110.38086 L 258.49609,121.71875 L 260.87891,121.71875 C 262.89062,121.71875 264.36197,121.26302 265.29297,120.35156 C 266.23046,119.44011 266.69921,118.00131 266.69922,116.03516 C 266.69921,114.08204 266.23046,112.65301 265.29297,111.74805 C 264.36197,110.8366 262.89062,110.38087 260.87891,110.38086 L 258.49609,110.38086 M 256.52344,108.75977 L 260.57617,108.75977 C 263.40168,108.75978 265.47525,109.34897 266.79688,110.52734 C 268.11848,111.69923 268.77928,113.53517 268.7793,116.03516 C 268.77928,118.54818 268.11522,120.39388 266.78711,121.57227 C 265.45897,122.75065 263.38866,123.33984 260.57617,123.33984 L 256.52344,123.33984 L 256.52344,108.75977 M 271.91406,108.75977 L 273.88672,108.75977 L 273.88672,121.67969 L 280.98633,121.67969 L 280.98633,123.33984 L 271.91406,123.33984 L 271.91406,108.75977 M 289.41406,108.75977 L 291.38672,108.75977 L 291.38672,121.67969 L 298.48633,121.67969 L 298.48633,123.33984 L 289.41406,123.33984 L 289.41406,108.75977 M 300.46875,112.40234 L 302.26562,112.40234 L 302.26562,123.33984 L 300.46875,123.33984 L 300.46875,112.40234 M 300.46875,108.14453 L 302.26562,108.14453 L 302.26562,110.41992 L 300.46875,110.41992 L 300.46875,108.14453 M 313.86719,117.88086 C 313.86718,116.55925 313.59374,115.5241 313.04688,114.77539 C 312.5065,114.02019 311.76106,113.64259 310.81055,113.64258 C 309.86002,113.64259 309.11132,114.02019 308.56445,114.77539 C 308.02408,115.5241 307.7539,116.55925 307.75391,117.88086 C 307.7539,119.20248 308.02408,120.24089 308.56445,120.99609 C 309.11132,121.74479 309.86002,122.11914 310.81055,122.11914 C 311.76106,122.11914 312.5065,121.74479 313.04688,120.99609 C 313.59374,120.24089 313.86718,119.20248 313.86719,117.88086 M 307.75391,114.0625 C 308.13151,113.41147 308.60677,112.9297 309.17969,112.61719 C 309.75911,112.29819 310.44921,112.13868 311.25,112.13867 C 312.57812,112.13868 313.65559,112.66603 314.48242,113.7207 C 315.31574,114.7754 315.73241,116.16212 315.73242,117.88086 C 315.73241,119.59961 315.31574,120.98633 314.48242,122.04102 C 313.65559,123.0957 312.57812,123.62305 311.25,123.62305 C 310.44921,123.62305 309.75911,123.4668 309.17969,123.1543 C 308.60677,122.83529 308.13151,122.35026 307.75391,121.69922 L 307.75391,123.33984 L 305.94727,123.33984 L 305.94727,108.14453 L 307.75391,108.14453 L 307.75391,114.0625 M 325.04883,114.08203 C 324.847,113.96485 324.62564,113.88022 324.38477,113.82812 C 324.15038,113.76954 323.88997,113.74024 323.60352,113.74023 C 322.58788,113.74024 321.80664,114.07227 321.25977,114.73633 C 320.7194,115.39389 320.44922,116.34115 320.44922,117.57812 L 320.44922,123.33984 L 318.64258,123.33984 L 318.64258,112.40234 L 320.44922,112.40234 L 320.44922,114.10156 C 320.82682,113.43751 321.31835,112.94597 321.92383,112.62695 C 322.52929,112.30144 323.26497,112.13868 324.13086,112.13867 C 324.25455,112.13868 324.39127,112.14845 324.54102,112.16797 C 324.69075,112.181 324.85676,112.20379 325.03906,112.23633 L 325.04883,114.08203 M 331.92383,117.8418 C 330.472,117.8418 329.46614,118.00782 328.90625,118.33984 C 328.34635,118.67188 328.0664,119.23829 328.06641,120.03906 C 328.0664,120.67709 328.27474,121.1849 328.69141,121.5625 C 329.11458,121.9336 329.6875,122.11914 330.41016,122.11914 C 331.40624,122.11914 332.20377,121.76758 332.80273,121.06445 C 333.40819,120.35482 333.71093,119.41407 333.71094,118.24219 L 333.71094,117.8418 L 331.92383,117.8418 M 335.50781,117.09961 L 335.50781,123.33984 L 333.71094,123.33984 L 333.71094,121.67969 C 333.30077,122.34375 332.78971,122.83529 332.17773,123.1543 C 331.56575,123.4668 330.81705,123.62305 329.93164,123.62305 C 328.81185,123.62305 327.91992,123.31055 327.25586,122.68555 C 326.59831,122.05404 326.26953,121.21094 326.26953,120.15625 C 326.26953,118.92579 326.67969,117.99805 327.5,117.37305 C 328.32682,116.74805 329.55729,116.43555 331.19141,116.43555 L 333.71094,116.43555 L 333.71094,116.25977 C 333.71093,115.43295 333.43749,114.79493 332.89062,114.3457 C 332.35025,113.88998 331.58854,113.66212 330.60547,113.66211 C 329.98046,113.66212 329.37174,113.73699 328.7793,113.88672 C 328.18685,114.03647 327.61718,114.26108 327.07031,114.56055 L 327.07031,112.90039 C 327.72786,112.6465 328.36588,112.45769 328.98438,112.33398 C 329.60286,112.20379 330.20507,112.13868 330.79102,112.13867 C 332.37304,112.13868 333.55468,112.54884 334.33594,113.36914 C 335.11718,114.18946 335.5078,115.43295 335.50781,117.09961 M 345.55664,114.08203 C 345.35481,113.96485 345.13346,113.88022 344.89258,113.82812 C 344.6582,113.76954 344.39778,113.74024 344.11133,113.74023 C 343.0957,113.74024 342.31445,114.07227 341.76758,114.73633 C 341.22721,115.39389 340.95703,116.34115 340.95703,117.57812 L 340.95703,123.33984 L 339.15039,123.33984 L 339.15039,112.40234 L 340.95703,112.40234 L 340.95703,114.10156 C 341.33463,113.43751 341.82617,112.94597 342.43164,112.62695 C 343.0371,112.30144 343.77278,112.13868 344.63867,112.13867 C 344.76236,112.13868 344.89908,112.14845 345.04883,112.16797 C 345.19856,112.181 345.36458,112.20379 345.54688,112.23633 L 345.55664,114.08203 M 352.01172,124.35547 C 351.5039,125.65755 351.00911,126.50716 350.52734,126.9043 C 350.04557,127.30143 349.40104,127.5 348.59375,127.5 L 347.1582,127.5 L 347.1582,125.99609 L 348.21289,125.99609 C 348.70768,125.99609 349.09179,125.8789 349.36523,125.64453 C 349.63867,125.41015 349.9414,124.85677 350.27344,123.98438 L 350.5957,123.16406 L 346.17188,112.40234 L 348.07617,112.40234 L 351.49414,120.95703 L 354.91211,112.40234 L 356.81641,112.40234 L 352.01172,124.35547" style="font-size: 20px; font-style: normal; font-variant: normal; font-weight: normal; font-stretch: normal; text-align: center; line-height: 125%; text-anchor: middle; fill: black; fill-opacity: 1; stroke: none; stroke-width: 1px; stroke-linecap: butt; stroke-linejoin: miter; stroke-opacity: 1; font-family: Bitstream Vera Sans;" id="text1901"/>
    <path d="M 45.961914,252.63672 L 47.954102,252.63672 L 51.020508,264.96094 L 54.077148,252.63672 L 56.293945,252.63672 L 59.360352,264.96094 L 62.416992,252.63672 L 64.418945,252.63672 L 60.756836,267.2168 L 58.276367,267.2168 L 55.200195,254.56055 L 52.094727,267.2168 L 49.614258,267.2168 L 45.961914,252.63672 M 66.948242,256.2793 L 68.745117,256.2793 L 68.745117,267.2168 L 66.948242,267.2168 L 66.948242,256.2793 M 66.948242,252.02148 L 68.745117,252.02148 L 68.745117,254.29688 L 66.948242,254.29688 L 66.948242,252.02148 M 81.586914,260.61523 L 81.586914,267.2168 L 79.790039,267.2168 L 79.790039,260.67383 C 79.79003,259.63868 79.588207,258.86394 79.18457,258.34961 C 78.780916,257.8353 78.175448,257.57813 77.368164,257.57812 C 76.398106,257.57813 75.633133,257.88738 75.073242,258.50586 C 74.513342,259.12436 74.233395,259.96746 74.233398,261.03516 L 74.233398,267.2168 L 72.426758,267.2168 L 72.426758,256.2793 L 74.233398,256.2793 L 74.233398,257.97852 C 74.663082,257.32097 75.167639,256.82944 75.74707,256.50391 C 76.333002,256.1784 77.00683,256.01564 77.768555,256.01562 C 79.025057,256.01564 79.975577,256.40626 80.620117,257.1875 C 81.264638,257.96225 81.586903,259.10483 81.586914,260.61523 M 92.387695,257.93945 L 92.387695,252.02148 L 94.18457,252.02148 L 94.18457,267.2168 L 92.387695,267.2168 L 92.387695,265.57617 C 92.010082,266.22721 91.531567,266.71224 90.952148,267.03125 C 90.379225,267.34375 89.689121,267.5 88.881836,267.5 C 87.560217,267.5 86.482744,266.97266 85.649414,265.91797 C 84.82259,264.86328 84.409179,263.47657 84.40918,261.75781 C 84.409179,260.03907 84.82259,258.65235 85.649414,257.59766 C 86.482744,256.54298 87.560217,256.01564 88.881836,256.01562 C 89.689121,256.01564 90.379225,256.17514 90.952148,256.49414 C 91.531567,256.80665 92.010082,257.28842 92.387695,257.93945 M 86.264648,261.75781 C 86.264645,263.07943 86.534828,264.11784 87.075195,264.87305 C 87.622066,265.62175 88.370763,265.99609 89.321289,265.99609 C 90.271803,265.99609 91.0205,265.62175 91.567383,264.87305 C 92.114249,264.11784 92.387686,263.07943 92.387695,261.75781 C 92.387686,260.4362 92.114249,259.40105 91.567383,258.65234 C 91.0205,257.89714 90.271803,257.51954 89.321289,257.51953 C 88.370763,257.51954 87.622066,257.89714 87.075195,258.65234 C 86.534828,259.40105 86.264645,260.4362 86.264648,261.75781 M 102.12402,257.53906 C 101.16048,257.53907 100.39876,257.91668 99.838867,258.67188 C 99.278968,259.42058 98.99902,260.44923 98.999023,261.75781 C 98.99902,263.06641 99.275713,264.09831 99.829102,264.85352 C 100.38899,265.60222 101.15397,265.97656 102.12402,265.97656 C 103.08105,265.97656 103.83951,265.59896 104.39941,264.84375 C 104.9593,264.08854 105.23925,263.0599 105.23926,261.75781 C 105.23925,260.46225 104.9593,259.43686 104.39941,258.68164 C 103.83951,257.91993 103.08105,257.53907 102.12402,257.53906 M 102.12402,256.01562 C 103.68652,256.01564 104.91373,256.52345 105.80566,257.53906 C 106.69758,258.5547 107.14354,259.96094 107.14355,261.75781 C 107.14354,263.54818 106.69758,264.95443 105.80566,265.97656 C 104.91373,266.99219 103.68652,267.5 102.12402,267.5 C 100.55501,267.5 99.324541,266.99219 98.432617,265.97656 C 97.547199,264.95443 97.104491,263.54818 97.104492,261.75781 C 97.104491,259.96094 97.547199,258.5547 98.432617,257.53906 C 99.324541,256.52345 100.55501,256.01564 102.12402,256.01562 M 109.06738,256.2793 L 110.86426,256.2793 L 113.11035,264.81445 L 115.34668,256.2793 L 117.46582,256.2793 L 119.71191,264.81445 L 121.94824,256.2793 L 123.74512,256.2793 L 120.88379,267.2168 L 118.76465,267.2168 L 116.41113,258.25195 L 114.04785,267.2168 L 111.92871,267.2168 L 109.06738,256.2793 M 133.45215,256.60156 L 133.45215,258.30078 C 132.94433,258.04037 132.41698,257.84506 131.87012,257.71484 C 131.32324,257.58465 130.75683,257.51954 130.1709,257.51953 C 129.27897,257.51954 128.60839,257.65626 128.15918,257.92969 C 127.71647,258.20313 127.49511,258.61329 127.49512,259.16016 C 127.49511,259.57683 127.65462,259.90561 127.97363,260.14648 C 128.29264,260.38087 128.93391,260.60548 129.89746,260.82031 L 130.5127,260.95703 C 131.78873,261.23047 132.69368,261.61784 133.22754,262.11914 C 133.76789,262.61394 134.03808,263.3073 134.03809,264.19922 C 134.03808,265.21485 133.63443,266.01888 132.82715,266.61133 C 132.02636,267.20378 130.92285,267.5 129.5166,267.5 C 128.93066,267.5 128.31868,267.44141 127.68066,267.32422 C 127.04915,267.21354 126.38183,267.04427 125.67871,266.81641 L 125.67871,264.96094 C 126.34277,265.30599 126.99707,265.56641 127.6416,265.74219 C 128.28613,265.91146 128.92415,265.99609 129.55566,265.99609 C 130.40201,265.99609 131.05305,265.85287 131.50879,265.56641 C 131.96451,265.27344 132.19238,264.86328 132.19238,264.33594 C 132.19238,263.84766 132.02636,263.47331 131.69434,263.21289 C 131.36881,262.95248 130.64941,262.70183 129.53613,262.46094 L 128.91113,262.31445 C 127.79785,262.08008 126.99381,261.72201 126.49902,261.24023 C 126.00423,260.75196 125.75683,260.08464 125.75684,259.23828 C 125.75683,258.20964 126.12142,257.41537 126.85059,256.85547 C 127.57975,256.29558 128.6149,256.01564 129.95605,256.01562 C 130.62011,256.01564 131.24511,256.06446 131.83105,256.16211 C 132.41698,256.25978 132.95735,256.40626 133.45215,256.60156" style="font-size: 20px; font-style: normal; font-variant: normal; font-weight: normal; font-stretch: normal; text-align: center; line-height: 125%; text-anchor: middle; fill: black; fill-opacity: 1; stroke: none; stroke-width: 1px; stroke-linecap: butt; stroke-linejoin: miter; stroke-opacity: 1; font-family: Bitstream Vera Sans;" id="text1909"/>
    <path d="M 309.35547,252.63672 L 311.32812,252.63672 L 311.32812,265.55664 L 318.42773,265.55664 L 318.42773,267.2168 L 309.35547,267.2168 L 309.35547,252.63672 M 320.41016,256.2793 L 322.20703,256.2793 L 322.20703,267.2168 L 320.41016,267.2168 L 320.41016,256.2793 M 320.41016,252.02148 L 322.20703,252.02148 L 322.20703,254.29688 L 320.41016,254.29688 L 320.41016,252.02148 M 335.04883,260.61523 L 335.04883,267.2168 L 333.25195,267.2168 L 333.25195,260.67383 C 333.25194,259.63868 333.05012,258.86394 332.64648,258.34961 C 332.24283,257.8353 331.63736,257.57813 330.83008,257.57812 C 329.86002,257.57813 329.09505,257.88738 328.53516,258.50586 C 327.97526,259.12436 327.69531,259.96746 327.69531,261.03516 L 327.69531,267.2168 L 325.88867,267.2168 L 325.88867,256.2793 L 327.69531,256.2793 L 327.69531,257.97852 C 328.125,257.32097 328.62955,256.82944 329.20898,256.50391 C 329.79492,256.1784 330.46874,256.01564 331.23047,256.01562 C 332.48697,256.01564 333.43749,256.40626 334.08203,257.1875 C 334.72655,257.96225 335.04882,259.10483 335.04883,260.61523 M 338.4668,262.90039 L 338.4668,256.2793 L 340.26367,256.2793 L 340.26367,262.83203 C 340.26367,263.86719 340.46549,264.64518 340.86914,265.16602 C 341.27278,265.68034 341.87825,265.9375 342.68555,265.9375 C 343.65559,265.9375 344.42057,265.62826 344.98047,265.00977 C 345.54687,264.39128 345.83007,263.54818 345.83008,262.48047 L 345.83008,256.2793 L 347.62695,256.2793 L 347.62695,267.2168 L 345.83008,267.2168 L 345.83008,265.53711 C 345.39387,266.20117 344.88606,266.69596 344.30664,267.02148 C 343.73372,267.34049 343.0664,267.5 342.30469,267.5 C 341.04817,267.5 340.0944,267.10938 339.44336,266.32812 C 338.79232,265.54688 338.4668,264.4043 338.4668,262.90039 M 360.43945,256.2793 L 356.48438,261.60156 L 360.64453,267.2168 L 358.52539,267.2168 L 355.3418,262.91992 L 352.1582,267.2168 L 350.03906,267.2168 L 354.28711,261.49414 L 350.40039,256.2793 L 352.51953,256.2793 L 355.41992,260.17578 L 358.32031,256.2793 L 360.43945,256.2793" style="font-size: 20px; font-style: normal; font-variant: normal; font-weight: normal; font-stretch: normal; text-align: center; line-height: 125%; text-anchor: middle; fill: black; fill-opacity: 1; stroke: none; stroke-width: 1px; stroke-linecap: butt; stroke-linejoin: miter; stroke-opacity: 1; font-family: Bitstream Vera Sans;" id="text1917"/>
    <path d="M 538.00293,201.29883 L 538.00293,202.17773 L 529.74121,202.17773 C 529.81933,203.41472 530.19043,204.35873 530.85449,205.00977 C 531.52506,205.6543 532.45605,205.97656 533.64746,205.97656 C 534.33756,205.97656 535.00487,205.89193 535.64941,205.72266 C 536.30045,205.55339 536.94498,205.29948 537.58301,204.96094 L 537.58301,206.66016 C 536.93847,206.93359 536.27766,207.14193 535.60059,207.28516 C 534.92349,207.42839 534.23665,207.5 533.54004,207.5 C 531.79524,207.5 530.41178,206.99219 529.38965,205.97656 C 528.37402,204.96094 527.86621,203.58724 527.86621,201.85547 C 527.86621,200.06511 528.34798,198.64584 529.31152,197.59766 C 530.28157,196.54298 531.58691,196.01564 533.22754,196.01562 C 534.69889,196.01564 535.86099,196.4909 536.71387,197.44141 C 537.57323,198.38543 538.00292,199.67123 538.00293,201.29883 M 536.20605,200.77148 C 536.19302,199.78842 535.91633,199.00391 535.37598,198.41797 C 534.84211,197.83204 534.13248,197.53907 533.24707,197.53906 C 532.24446,197.53907 531.44043,197.82228 530.83496,198.38867 C 530.236,198.95509 529.89095,199.75261 529.7998,200.78125 L 536.20605,200.77148 M 542.72949,193.17383 L 542.72949,196.2793 L 546.43066,196.2793 L 546.43066,197.67578 L 542.72949,197.67578 L 542.72949,203.61328 C 542.72949,204.50521 542.84993,205.07813 543.09082,205.33203 C 543.33821,205.58594 543.83626,205.71289 544.58496,205.71289 L 546.43066,205.71289 L 546.43066,207.2168 L 544.58496,207.2168 C 543.19824,207.2168 542.24121,206.95964 541.71387,206.44531 C 541.18652,205.92448 540.92285,204.98047 540.92285,203.61328 L 540.92285,197.67578 L 539.60449,197.67578 L 539.60449,196.2793 L 540.92285,196.2793 L 540.92285,193.17383 L 542.72949,193.17383 M 556.6748,196.69922 L 556.6748,198.37891 C 556.16698,198.09897 555.65592,197.89063 555.1416,197.75391 C 554.63378,197.61069 554.11946,197.53907 553.59863,197.53906 C 552.43326,197.53907 551.52832,197.91017 550.88379,198.65234 C 550.23925,199.38803 549.91699,200.42318 549.91699,201.75781 C 549.91699,203.09245 550.23925,204.13086 550.88379,204.87305 C 551.52832,205.60873 552.43326,205.97656 553.59863,205.97656 C 554.11946,205.97656 554.63378,205.9082 555.1416,205.77148 C 555.65592,205.62826 556.16698,205.41667 556.6748,205.13672 L 556.6748,206.79688 C 556.17349,207.03125 555.65266,207.20703 555.1123,207.32422 C 554.57844,207.44141 554.00878,207.5 553.40332,207.5 C 551.75618,207.5 550.44759,206.98242 549.47754,205.94727 C 548.50749,204.91211 548.02246,203.51563 548.02246,201.75781 C 548.02246,199.97397 548.51074,198.57097 549.4873,197.54883 C 550.47037,196.5267 551.81477,196.01564 553.52051,196.01562 C 554.07389,196.01564 554.61425,196.07423 555.1416,196.19141 C 555.66894,196.30209 556.18,196.47136 556.6748,196.69922 M 560.07324,204.73633 L 562.13379,204.73633 L 562.13379,207.2168 L 560.07324,207.2168 L 560.07324,204.73633" style="font-size: 20px; font-style: normal; font-variant: normal; font-weight: normal; font-stretch: normal; text-align: center; line-height: 125%; text-anchor: middle; fill: black; fill-opacity: 1; stroke: none; stroke-width: 1px; stroke-linecap: butt; stroke-linejoin: miter; stroke-opacity: 1; font-family: Bitstream Vera Sans;" id="text1921"/>
    <path d="M 538.00293,261.29883 L 538.00293,262.17773 L 529.74121,262.17773 C 529.81933,263.41472 530.19043,264.35873 530.85449,265.00977 C 531.52506,265.6543 532.45605,265.97656 533.64746,265.97656 C 534.33756,265.97656 535.00487,265.89193 535.64941,265.72266 C 536.30045,265.55339 536.94498,265.29948 537.58301,264.96094 L 537.58301,266.66016 C 536.93847,266.93359 536.27766,267.14193 535.60059,267.28516 C 534.92349,267.42839 534.23665,267.5 533.54004,267.5 C 531.79524,267.5 530.41178,266.99219 529.38965,265.97656 C 528.37402,264.96094 527.86621,263.58724 527.86621,261.85547 C 527.86621,260.06511 528.34798,258.64584 529.31152,257.59766 C 530.28157,256.54298 531.58691,256.01564 533.22754,256.01562 C 534.69889,256.01564 535.86099,256.4909 536.71387,257.44141 C 537.57323,258.38543 538.00292,259.67123 538.00293,261.29883 M 536.20605,260.77148 C 536.19302,259.78842 535.91633,259.00391 535.37598,258.41797 C 534.84211,257.83204 534.13248,257.53907 533.24707,257.53906 C 532.24446,257.53907 531.44043,257.82228 530.83496,258.38867 C 530.236,258.95509 529.89095,259.75261 529.7998,260.78125 L 536.20605,260.77148 M 542.72949,253.17383 L 542.72949,256.2793 L 546.43066,256.2793 L 546.43066,257.67578 L 542.72949,257.67578 L 542.72949,263.61328 C 542.72949,264.50521 542.84993,265.07813 543.09082,265.33203 C 543.33821,265.58594 543.83626,265.71289 544.58496,265.71289 L 546.43066,265.71289 L 546.43066,267.2168 L 544.58496,267.2168 C 543.19824,267.2168 542.24121,266.95964 541.71387,266.44531 C 541.18652,265.92448 540.92285,264.98047 540.92285,263.61328 L 540.92285,257.67578 L 539.60449,257.67578 L 539.60449,256.2793 L 540.92285,256.2793 L 540.92285,253.17383 L 542.72949,253.17383 M 556.6748,256.69922 L 556.6748,258.37891 C 556.16698,258.09897 555.65592,257.89063 555.1416,257.75391 C 554.63378,257.61069 554.11946,257.53907 553.59863,257.53906 C 552.43326,257.53907 551.52832,257.91017 550.88379,258.65234 C 550.23925,259.38803 549.91699,260.42318 549.91699,261.75781 C 549.91699,263.09245 550.23925,264.13086 550.88379,264.87305 C 551.52832,265.60873 552.43326,265.97656 553.59863,265.97656 C 554.11946,265.97656 554.63378,265.9082 555.1416,265.77148 C 555.65592,265.62826 556.16698,265.41667 556.6748,265.13672 L 556.6748,266.79688 C 556.17349,267.03125 555.65266,267.20703 555.1123,267.32422 C 554.57844,267.44141 554.00878,267.5 553.40332,267.5 C 551.75618,267.5 550.44759,266.98242 549.47754,265.94727 C 548.50749,264.91211 548.02246,263.51563 548.02246,261.75781 C 548.02246,259.97397 548.51074,258.57097 549.4873,257.54883 C 550.47037,256.5267 551.81477,256.01564 553.52051,256.01562 C 554.07389,256.01564 554.61425,256.07423 555.1416,256.19141 C 555.66894,256.30209 556.18,256.47136 556.6748,256.69922 M 560.07324,264.73633 L 562.13379,264.73633 L 562.13379,267.2168 L 560.07324,267.2168 L 560.07324,264.73633" style="font-size: 20px; font-style: normal; font-variant: normal; font-weight: normal; font-stretch: normal; text-align: center; line-height: 125%; text-anchor: middle; fill: black; fill-opacity: 1; stroke: none; stroke-width: 1px; stroke-linecap: butt; stroke-linejoin: miter; stroke-opacity: 1; font-family: Bitstream Vera Sans;" id="text1925"/>
    <path d="M 407.75879,192.63672 L 409.87793,192.63672 L 413.50098,198.05664 L 417.14355,192.63672 L 419.2627,192.63672 L 414.5752,199.63867 L 419.5752,207.2168 L 417.45605,207.2168 L 413.35449,201.01562 L 409.22363,207.2168 L 407.09473,207.2168 L 412.2998,199.43359 L 407.75879,192.63672 M 422.09473,192.02148 L 423.8916,192.02148 L 423.8916,207.2168 L 422.09473,207.2168 L 422.09473,192.02148 M 427.6416,196.2793 L 429.43848,196.2793 L 429.43848,207.2168 L 427.6416,207.2168 L 427.6416,196.2793 M 427.6416,192.02148 L 429.43848,192.02148 L 429.43848,194.29688 L 427.6416,194.29688 L 427.6416,192.02148 M 441.04004,201.75781 C 441.04003,200.4362 440.76659,199.40105 440.21973,198.65234 C 439.67935,197.89714 438.93391,197.51954 437.9834,197.51953 C 437.03287,197.51954 436.28417,197.89714 435.7373,198.65234 C 435.19694,199.40105 434.92675,200.4362 434.92676,201.75781 C 434.92675,203.07943 435.19694,204.11784 435.7373,204.87305 C 436.28417,205.62175 437.03287,205.99609 437.9834,205.99609 C 438.93391,205.99609 439.67935,205.62175 440.21973,204.87305 C 440.76659,204.11784 441.04003,203.07943 441.04004,201.75781 M 434.92676,197.93945 C 435.30436,197.28842 435.77962,196.80665 436.35254,196.49414 C 436.93196,196.17514 437.62206,196.01564 438.42285,196.01562 C 439.75097,196.01564 440.82844,196.54298 441.65527,197.59766 C 442.4886,198.65235 442.90526,200.03907 442.90527,201.75781 C 442.90526,203.47657 442.4886,204.86328 441.65527,205.91797 C 440.82844,206.97266 439.75097,207.5 438.42285,207.5 C 437.62206,207.5 436.93196,207.34375 436.35254,207.03125 C 435.77962,206.71224 435.30436,206.22721 434.92676,205.57617 L 434.92676,207.2168 L 433.12012,207.2168 L 433.12012,192.02148 L 434.92676,192.02148 L 434.92676,197.93945" style="font-size: 20px; font-style: normal; font-variant: normal; font-weight: normal; font-stretch: normal; text-align: center; line-height: 125%; text-anchor: middle; fill: black; fill-opacity: 1; stroke: none; stroke-width: 1px; stroke-linecap: butt; stroke-linejoin: miter; stroke-opacity: 1; font-family: Bitstream Vera Sans;" id="text1929"/>
    <path d="M 237.53418,192.02148 L 237.53418,193.51562 L 235.81543,193.51562 C 235.17089,193.51564 234.72168,193.64585 234.46777,193.90625 C 234.22037,194.16668 234.09668,194.63543 234.09668,195.3125 L 234.09668,196.2793 L 237.05566,196.2793 L 237.05566,197.67578 L 234.09668,197.67578 L 234.09668,207.2168 L 232.29004,207.2168 L 232.29004,197.67578 L 230.57129,197.67578 L 230.57129,196.2793 L 232.29004,196.2793 L 232.29004,195.51758 C 232.29004,194.30014 232.57324,193.41473 233.13965,192.86133 C 233.70605,192.30145 234.60449,192.0215 235.83496,192.02148 L 237.53418,192.02148 M 245.36621,197.95898 C 245.16438,197.84181 244.94303,197.75717 244.70215,197.70508 C 244.46777,197.64649 244.20735,197.6172 243.9209,197.61719 C 242.90527,197.6172 242.12402,197.94923 241.57715,198.61328 C 241.03678,199.27084 240.7666,200.21811 240.7666,201.45508 L 240.7666,207.2168 L 238.95996,207.2168 L 238.95996,196.2793 L 240.7666,196.2793 L 240.7666,197.97852 C 241.1442,197.31446 241.63574,196.82293 242.24121,196.50391 C 242.84667,196.1784 243.58235,196.01564 244.44824,196.01562 C 244.57193,196.01564 244.70865,196.0254 244.8584,196.04492 C 245.00813,196.05795 245.17415,196.08074 245.35645,196.11328 L 245.36621,197.95898 M 252.24121,201.71875 C 250.78938,201.71876 249.78352,201.88477 249.22363,202.2168 C 248.66373,202.54883 248.38379,203.11524 248.38379,203.91602 C 248.38379,204.55404 248.59212,205.06185 249.00879,205.43945 C 249.43196,205.81055 250.00488,205.99609 250.72754,205.99609 C 251.72363,205.99609 252.52115,205.64453 253.12012,204.94141 C 253.72558,204.23177 254.02831,203.29102 254.02832,202.11914 L 254.02832,201.71875 L 252.24121,201.71875 M 255.8252,200.97656 L 255.8252,207.2168 L 254.02832,207.2168 L 254.02832,205.55664 C 253.61816,206.2207 253.10709,206.71224 252.49512,207.03125 C 251.88313,207.34375 251.13443,207.5 250.24902,207.5 C 249.12923,207.5 248.2373,207.1875 247.57324,206.5625 C 246.91569,205.93099 246.58691,205.08789 246.58691,204.0332 C 246.58691,202.80274 246.99707,201.87501 247.81738,201.25 C 248.6442,200.62501 249.87467,200.31251 251.50879,200.3125 L 254.02832,200.3125 L 254.02832,200.13672 C 254.02831,199.3099 253.75487,198.67188 253.20801,198.22266 C 252.66764,197.76694 251.90592,197.53907 250.92285,197.53906 C 250.29785,197.53907 249.68912,197.61394 249.09668,197.76367 C 248.50423,197.91342 247.93457,198.13803 247.3877,198.4375 L 247.3877,196.77734 C 248.04524,196.52345 248.68326,196.33465 249.30176,196.21094 C 249.92024,196.08074 250.52246,196.01564 251.1084,196.01562 C 252.69042,196.01564 253.87206,196.42579 254.65332,197.24609 C 255.43456,198.06642 255.82518,199.3099 255.8252,200.97656 M 268.05176,198.37891 C 268.50097,197.57162 269.03807,196.97592 269.66309,196.5918 C 270.28807,196.20769 271.02375,196.01564 271.87012,196.01562 C 273.00942,196.01564 273.88833,196.41603 274.50684,197.2168 C 275.12531,198.01108 275.43455,199.14389 275.43457,200.61523 L 275.43457,207.2168 L 273.62793,207.2168 L 273.62793,200.67383 C 273.62791,199.62566 273.44237,198.84766 273.07129,198.33984 C 272.70018,197.83204 272.13377,197.57813 271.37207,197.57812 C 270.44107,197.57813 269.70539,197.88738 269.16504,198.50586 C 268.62466,199.12436 268.35448,199.96746 268.35449,201.03516 L 268.35449,207.2168 L 266.54785,207.2168 L 266.54785,200.67383 C 266.54784,199.61915 266.3623,198.84115 265.99121,198.33984 C 265.62011,197.83204 265.04719,197.57813 264.27246,197.57812 C 263.35449,197.57813 262.62532,197.89063 262.08496,198.51562 C 261.54459,199.13412 261.27441,199.97397 261.27441,201.03516 L 261.27441,207.2168 L 259.46777,207.2168 L 259.46777,196.2793 L 261.27441,196.2793 L 261.27441,197.97852 C 261.68457,197.30795 262.1761,196.81316 262.74902,196.49414 C 263.32193,196.17514 264.00227,196.01564 264.79004,196.01562 C 265.5843,196.01564 266.25813,196.21746 266.81152,196.62109 C 267.37141,197.02475 267.78482,197.61069 268.05176,198.37891 M 288.38379,201.29883 L 288.38379,202.17773 L 280.12207,202.17773 C 280.20019,203.41472 280.57129,204.35873 281.23535,205.00977 C 281.90592,205.6543 282.83691,205.97656 284.02832,205.97656 C 284.71842,205.97656 285.38573,205.89193 286.03027,205.72266 C 286.68131,205.55339 287.32584,205.29948 287.96387,204.96094 L 287.96387,206.66016 C 287.31933,206.93359 286.65852,207.14193 285.98145,207.28516 C 285.30435,207.42839 284.61751,207.5 283.9209,207.5 C 282.1761,207.5 280.79264,206.99219 279.77051,205.97656 C 278.75488,204.96094 278.24707,203.58724 278.24707,201.85547 C 278.24707,200.06511 278.72884,198.64584 279.69238,197.59766 C 280.66243,196.54298 281.96777,196.01564 283.6084,196.01562 C 285.07974,196.01564 286.24185,196.4909 287.09473,197.44141 C 287.95409,198.38543 288.38378,199.67123 288.38379,201.29883 M 286.58691,200.77148 C 286.57388,199.78842 286.29719,199.00391 285.75684,198.41797 C 285.22297,197.83204 284.51334,197.53907 283.62793,197.53906 C 282.62532,197.53907 281.82128,197.82228 281.21582,198.38867 C 280.61686,198.95509 280.27181,199.75261 280.18066,200.78125 L 286.58691,200.77148 M 299.18457,201.75781 C 299.18456,200.4362 298.91112,199.40105 298.36426,198.65234 C 297.82388,197.89714 297.07844,197.51954 296.12793,197.51953 C 295.1774,197.51954 294.42871,197.89714 293.88184,198.65234 C 293.34147,199.40105 293.07129,200.4362 293.07129,201.75781 C 293.07129,203.07943 293.34147,204.11784 293.88184,204.87305 C 294.42871,205.62175 295.1774,205.99609 296.12793,205.99609 C 297.07844,205.99609 297.82388,205.62175 298.36426,204.87305 C 298.91112,204.11784 299.18456,203.07943 299.18457,201.75781 M 293.07129,197.93945 C 293.44889,197.28842 293.92415,196.80665 294.49707,196.49414 C 295.07649,196.17514 295.7666,196.01564 296.56738,196.01562 C 297.8955,196.01564 298.97297,196.54298 299.7998,197.59766 C 300.63313,198.65235 301.04979,200.03907 301.0498,201.75781 C 301.04979,203.47657 300.63313,204.86328 299.7998,205.91797 C 298.97297,206.97266 297.8955,207.5 296.56738,207.5 C 295.7666,207.5 295.07649,207.34375 294.49707,207.03125 C 293.92415,206.71224 293.44889,206.22721 293.07129,205.57617 L 293.07129,207.2168 L 291.26465,207.2168 L 291.26465,192.02148 L 293.07129,192.02148 L 293.07129,197.93945 M 303.84277,202.90039 L 303.84277,196.2793 L 305.63965,196.2793 L 305.63965,202.83203 C 305.63964,203.86719 305.84147,204.64518 306.24512,205.16602 C 306.64876,205.68034 307.25423,205.9375 308.06152,205.9375 C 309.03157,205.9375 309.79654,205.62826 310.35645,205.00977 C 310.92284,204.39128 311.20605,203.54818 311.20605,202.48047 L 311.20605,196.2793 L 313.00293,196.2793 L 313.00293,207.2168 L 311.20605,207.2168 L 311.20605,205.53711 C 310.76985,206.20117 310.26204,206.69596 309.68262,207.02148 C 309.10969,207.34049 308.44238,207.5 307.68066,207.5 C 306.42415,207.5 305.47037,207.10938 304.81934,206.32812 C 304.16829,205.54688 303.84277,204.4043 303.84277,202.90039 M 322.26074,192.02148 L 322.26074,193.51562 L 320.54199,193.51562 C 319.89746,193.51564 319.44824,193.64585 319.19434,193.90625 C 318.94694,194.16668 318.82324,194.63543 318.82324,195.3125 L 318.82324,196.2793 L 321.78223,196.2793 L 321.78223,197.67578 L 318.82324,197.67578 L 318.82324,207.2168 L 317.0166,207.2168 L 317.0166,197.67578 L 315.29785,197.67578 L 315.29785,196.2793 L 317.0166,196.2793 L 317.0166,195.51758 C 317.0166,194.30014 317.2998,193.41473 317.86621,192.86133 C 318.43261,192.30145 319.33105,192.0215 320.56152,192.02148 L 322.26074,192.02148 M 329.29199,192.02148 L 329.29199,193.51562 L 327.57324,193.51562 C 326.92871,193.51564 326.47949,193.64585 326.22559,193.90625 C 325.97819,194.16668 325.85449,194.63543 325.85449,195.3125 L 325.85449,196.2793 L 328.81348,196.2793 L 328.81348,197.67578 L 325.85449,197.67578 L 325.85449,207.2168 L 324.04785,207.2168 L 324.04785,197.67578 L 322.3291,197.67578 L 322.3291,196.2793 L 324.04785,196.2793 L 324.04785,195.51758 C 324.04785,194.30014 324.33105,193.41473 324.89746,192.86133 C 325.46386,192.30145 326.3623,192.0215 327.59277,192.02148 L 329.29199,192.02148 M 340.1416,201.29883 L 340.1416,202.17773 L 331.87988,202.17773 C 331.958,203.41472 332.3291,204.35873 332.99316,205.00977 C 333.66373,205.6543 334.59472,205.97656 335.78613,205.97656 C 336.47623,205.97656 337.14355,205.89193 337.78809,205.72266 C 338.43912,205.55339 339.08365,205.29948 339.72168,204.96094 L 339.72168,206.66016 C 339.07714,206.93359 338.41633,207.14193 337.73926,207.28516 C 337.06217,207.42839 336.37532,207.5 335.67871,207.5 C 333.93391,207.5 332.55045,206.99219 331.52832,205.97656 C 330.51269,204.96094 330.00488,203.58724 330.00488,201.85547 C 330.00488,200.06511 330.48665,198.64584 331.4502,197.59766 C 332.42024,196.54298 333.72558,196.01564 335.36621,196.01562 C 336.83756,196.01564 337.99967,196.4909 338.85254,197.44141 C 339.7119,198.38543 340.14159,199.67123 340.1416,201.29883 M 338.34473,200.77148 C 338.3317,199.78842 338.055,199.00391 337.51465,198.41797 C 336.98079,197.83204 336.27115,197.53907 335.38574,197.53906 C 334.38313,197.53907 333.5791,197.82228 332.97363,198.38867 C 332.37467,198.95509 332.02962,199.75261 331.93848,200.78125 L 338.34473,200.77148 M 349.42871,197.95898 C 349.22688,197.84181 349.00553,197.75717 348.76465,197.70508 C 348.53027,197.64649 348.26985,197.6172 347.9834,197.61719 C 346.96777,197.6172 346.18652,197.94923 345.63965,198.61328 C 345.09928,199.27084 344.8291,200.21811 344.8291,201.45508 L 344.8291,207.2168 L 343.02246,207.2168 L 343.02246,196.2793 L 344.8291,196.2793 L 344.8291,197.97852 C 345.2067,197.31446 345.69824,196.82293 346.30371,196.50391 C 346.90917,196.1784 347.64485,196.01564 348.51074,196.01562 C 348.63443,196.01564 348.77115,196.0254 348.9209,196.04492 C 349.07063,196.05795 349.23665,196.08074 349.41895,196.11328 L 349.42871,197.95898" style="font-size: 20px; font-style: normal; font-variant: normal; font-weight: normal; font-stretch: normal; text-align: center; line-height: 125%; text-anchor: middle; fill: black; fill-opacity: 1; stroke: none; stroke-width: 1px; stroke-linecap: butt; stroke-linejoin: miter; stroke-opacity: 1; font-family: Bitstream Vera Sans;" id="text1933"/>
    <path d="M 56.240234,194.25781 L 56.240234,205.5957 L 58.623047,205.5957 C 60.634757,205.5957 62.10611,205.13998 63.037109,204.22852 C 63.974598,203.31706 64.443347,201.87826 64.443359,199.91211 C 64.443347,197.95899 63.974598,196.52996 63.037109,195.625 C 62.10611,194.71355 60.634757,194.25783 58.623047,194.25781 L 56.240234,194.25781 M 54.267578,192.63672 L 58.320312,192.63672 C 61.145824,192.63673 63.21939,193.22593 64.541016,194.4043 C 65.862617,195.57618 66.523423,197.41212 66.523438,199.91211 C 66.523423,202.42514 65.859361,204.27084 64.53125,205.44922 C 63.203114,206.6276 61.132804,207.2168 58.320312,207.2168 L 54.267578,207.2168 L 54.267578,192.63672 M 69.580078,196.2793 L 71.376953,196.2793 L 71.376953,207.2168 L 69.580078,207.2168 L 69.580078,196.2793 M 69.580078,192.02148 L 71.376953,192.02148 L 71.376953,194.29688 L 69.580078,194.29688 L 69.580078,192.02148 M 81.464844,197.95898 C 81.263013,197.84181 81.041659,197.75717 80.800781,197.70508 C 80.566399,197.64649 80.305983,197.6172 80.019531,197.61719 C 79.0039,197.6172 78.222651,197.94923 77.675781,198.61328 C 77.135413,199.27084 76.865231,200.21811 76.865234,201.45508 L 76.865234,207.2168 L 75.058594,207.2168 L 75.058594,196.2793 L 76.865234,196.2793 L 76.865234,197.97852 C 77.242835,197.31446 77.734371,196.82293 78.339844,196.50391 C 78.945307,196.1784 79.680983,196.01564 80.546875,196.01562 C 80.670565,196.01564 80.807284,196.0254 80.957031,196.04492 C 81.106763,196.05795 81.272778,196.08074 81.455078,196.11328 L 81.464844,197.95898 M 92.724609,201.29883 L 92.724609,202.17773 L 84.462891,202.17773 C 84.541013,203.41472 84.912106,204.35873 85.576172,205.00977 C 86.24674,205.6543 87.177729,205.97656 88.369141,205.97656 C 89.059237,205.97656 89.726554,205.89193 90.371094,205.72266 C 91.022126,205.55339 91.666656,205.29948 92.304688,204.96094 L 92.304688,206.66016 C 91.660146,206.93359 90.999339,207.14193 90.322266,207.28516 C 89.645174,207.42839 88.958326,207.5 88.261719,207.5 C 86.516922,207.5 85.13346,206.99219 84.111328,205.97656 C 83.095702,204.96094 82.58789,203.58724 82.587891,201.85547 C 82.58789,200.06511 83.06966,198.64584 84.033203,197.59766 C 85.003252,196.54298 86.308589,196.01564 87.949219,196.01562 C 89.420565,196.01564 90.582673,196.4909 91.435547,197.44141 C 92.294911,198.38543 92.724598,199.67123 92.724609,201.29883 M 90.927734,200.77148 C 90.914704,199.78842 90.638012,199.00391 90.097656,198.41797 C 89.563794,197.83204 88.854159,197.53907 87.96875,197.53906 C 86.96614,197.53907 86.162105,197.82228 85.556641,198.38867 C 84.957679,198.95509 84.612627,199.75261 84.521484,200.78125 L 90.927734,200.77148 M 103.54492,196.69922 L 103.54492,198.37891 C 103.0371,198.09897 102.52603,197.89063 102.01172,197.75391 C 101.5039,197.61069 100.98958,197.53907 100.46875,197.53906 C 99.30338,197.53907 98.398433,197.91017 97.753906,198.65234 C 97.109372,199.38803 96.787106,200.42318 96.787109,201.75781 C 96.787106,203.09245 97.109372,204.13086 97.753906,204.87305 C 98.398433,205.60873 99.30338,205.97656 100.46875,205.97656 C 100.98958,205.97656 101.5039,205.9082 102.01172,205.77148 C 102.52603,205.62826 103.0371,205.41667 103.54492,205.13672 L 103.54492,206.79688 C 103.04361,207.03125 102.52278,207.20703 101.98242,207.32422 C 101.44856,207.44141 100.8789,207.5 100.27344,207.5 C 98.626297,207.5 97.317705,206.98242 96.347656,205.94727 C 95.377603,204.91211 94.892577,203.51563 94.892578,201.75781 C 94.892577,199.97397 95.380858,198.57097 96.357422,197.54883 C 97.340491,196.5267 98.684891,196.01564 100.39062,196.01562 C 100.944,196.01564 101.48437,196.07423 102.01172,196.19141 C 102.53905,196.30209 103.05012,196.47136 103.54492,196.69922 M 108.4668,193.17383 L 108.4668,196.2793 L 112.16797,196.2793 L 112.16797,197.67578 L 108.4668,197.67578 L 108.4668,203.61328 C 108.46679,204.50521 108.58724,205.07813 108.82812,205.33203 C 109.07552,205.58594 109.57356,205.71289 110.32227,205.71289 L 112.16797,205.71289 L 112.16797,207.2168 L 110.32227,207.2168 C 108.93554,207.2168 107.97851,206.95964 107.45117,206.44531 C 106.92383,205.92448 106.66015,204.98047 106.66016,203.61328 L 106.66016,197.67578 L 105.3418,197.67578 L 105.3418,196.2793 L 106.66016,196.2793 L 106.66016,193.17383 L 108.4668,193.17383 M 113.91602,192.63672 L 116.03516,192.63672 L 119.6582,198.05664 L 123.30078,192.63672 L 125.41992,192.63672 L 120.73242,199.63867 L 125.73242,207.2168 L 123.61328,207.2168 L 119.51172,201.01562 L 115.38086,207.2168 L 113.25195,207.2168 L 118.45703,199.43359 L 113.91602,192.63672" style="font-size: 20px; font-style: normal; font-variant: normal; font-weight: normal; font-stretch: normal; text-align: center; line-height: 125%; text-anchor: middle; fill: black; fill-opacity: 1; stroke: none; stroke-width: 1px; stroke-linecap: butt; stroke-linejoin: miter; stroke-opacity: 1; font-family: Bitstream Vera Sans;" id="text1937"/>
    <path d="M 296.875,70 L 303.125,70 L 303.125,90 L 296.875,90 L 296.875,70 z " style="fill: black;" id="rect2862"/>
  </g>
</svg>